<svg xmlns="http://www.w3.org/2000/svg" width="40" height="40" viewBox="0 0 49 49">
  <path fill="#FFFFFF" fill-rule="evenodd" d="M6.79329992,26.4892849 L16.5409658,26.4892849 C17.6392944,26.4892849 18.5306915,25.5980078 18.5306915,24.499827 C18.5306915,23.4016463 17.6392944,22.5103692 16.5409658,22.5103692 L1.99010221,22.5103692 C1.18625305,22.5103692 0.460003194,22.9957969 0.15159572,23.7378647 C-0.156811755,24.4799325 0.0143046502,25.3373888 0.583366184,25.9063737 L6.23418701,31.5584234 L0.800246279,37.1865995 C0.0361916322,37.9764143 0.0580786143,39.2377305 0.847999695,39.9996929 C1.23400647,40.3737109 1.73342761,40.5587305 2.23085902,40.5587305 C2.75216714,40.5587305 3.27148553,40.3558058 3.66147175,39.9519459 L10.4543951,32.917223 C11.2085011,32.1353661 11.1985525,30.8959339 10.4305184,30.1280032 L6.79329992,26.4892849 L6.79329992,26.4892849 Z M48.406422,23.0813436 L42.670043,17.4412307 L48.1895419,11.8269808 C48.9595657,11.0431344 48.9476274,9.7838076 48.1656652,9.01189797 C47.3797236,8.23998834 46.1202273,8.25391454 45.3502034,9.03577146 L38.4359068,16.0704943 C37.665883,16.8543407 37.6778214,18.1136675 38.4597835,18.8835876 L42.1487349,22.5103692 L26.4895941,22.5103692 L26.4895941,6.91103052 L30.1049256,10.6492217 C30.8669905,11.437047 32.1264868,11.4609205 32.9183976,10.6949793 C33.7083187,9.93102748 33.7302057,8.67170068 32.9641613,7.88188593 L25.9284914,0.606438708 C25.3653991,0.0215381111 24.4998684,-0.157513092 23.7517316,0.144884495 C23.001605,0.451260999 22.5101428,1.18139202 22.5101428,1.9930908 L22.5101428,24.499827 C22.5101428,25.5980078 23.4015399,26.4892849 24.4998684,26.4892849 L47.0096346,26.4892849 C47.8174632,26.4892849 48.5437131,25.9998782 48.8501308,25.2538315 C49.1585383,24.5057954 48.9814527,23.6483391 48.406422,23.0813436 L48.406422,23.0813436 Z M24.4998684,30.4682005 C23.4015399,30.4682005 22.5101428,31.3594776 22.5101428,32.4576583 L22.5101428,42.0886236 L18.8948113,38.3504323 C18.1327464,37.5606176 16.8712603,37.5387335 16.0813392,38.3046748 C15.2914181,39.0686266 15.2695312,40.3279534 16.0355755,41.1177681 L23.0712454,48.3932154 C23.4532727,48.7891175 23.9725911,49 24.5018581,49 C24.7525636,49 25.0052587,48.952253 25.2480053,48.8547696 C25.9981318,48.5483931 26.4895941,47.8182621 26.4895941,47.0065633 L26.4895941,32.4576583 C26.4895941,31.3594776 25.598197,30.4682005 24.4998684,30.4682005 L24.4998684,30.4682005 Z"/>
</svg>
