<svg xmlns="http://www.w3.org/2000/svg" width="11" height="11" viewBox="0 0 11 11">
  <path fill="#FFFFFF" fill-rule="evenodd" d="M6.83880673,7.68989132 C6.12425737,8.22758946 5.23560428,8.54628526 4.27252653,8.54628526 C1.91287529,8.54628526 0,6.63313414 0,4.27314263 C0,1.91315112 1.91287529,0 4.27252653,0 C6.63217778,0 8.54505307,1.91315112 8.54505307,4.27314263 C8.54505307,5.23676553 8.22613436,6.12589023 7.68810219,6.84069709 C7.75651732,6.87184433 7.8204846,6.91542677 7.87640617,6.97134834 L10.8096959,9.90463805 C11.0616865,10.1566286 11.064819,10.5620535 10.8127953,10.8140772 C10.5625165,11.0643561 10.152857,11.0604787 9.90335613,10.8109778 L6.97006642,7.87768808 C6.91394758,7.82156924 6.87017116,7.75784063 6.83880673,7.68989132 Z M4.27252653,7.69165673 C6.16024753,7.69165673 7.69054776,6.16113584 7.69054776,4.27314263 C7.69054776,2.38514942 6.16024753,0.854628526 4.27252653,0.854628526 C2.38480554,0.854628526 0.854505307,2.38514942 0.854505307,4.27314263 C0.854505307,6.16113584 2.38480554,7.69165673 4.27252653,7.69165673 Z"/>
</svg>
