<svg xmlns="http://www.w3.org/2000/svg" width="20" height="20" viewBox="0 0 20 20">
  <path fill="#62ABC4" fill-rule="evenodd" d="M17.2851997,8.62882452 L19.820508,7.16506351 L17.320508,2.83493649 L14.7841067,4.29932852 C14.0908263,3.70604035 13.2880403,3.2370171 12.410254,2.92676422 L12.410254,0 L7.41025404,0 L7.41025404,2.92676422 C6.53246783,3.2370171 5.72968179,3.70604035 5.0364014,4.29932852 L2.5,2.83493649 L0,7.16506351 L2.53530845,8.62882452 C2.45317874,9.07337762 2.41025404,9.53167601 2.41025404,10 C2.41025404,10.468324 2.45317874,10.9266224 2.53530845,11.3711755 L0,12.8349365 L2.5,17.1650635 L5.0364014,15.7006715 C5.72968179,16.2939596 6.53246783,16.7629829 7.41025404,17.0732357 L7.41025404,20 L12.410254,20 L12.410254,17.0732357 C13.2880403,16.7629829 14.0908263,16.2939596 14.7841067,15.7006715 L17.320508,17.1650635 L19.820508,12.8349365 L17.2851997,11.3711755 C17.3673293,10.9266224 17.410254,10.468324 17.410254,10 C17.410254,9.53167601 17.3673293,9.07337762 17.2851997,8.62882452 L17.2851997,8.62882452 Z M16,10.089746 C16,6.7760373 13.3137087,4.08974596 10,4.08974596 C6.68629134,4.08974596 4,6.7760373 4,10.089746 C4,13.4034546 6.68629134,16.089746 10,16.089746 C13.3137087,16.089746 16,13.4034546 16,10.089746 L16,10.089746 Z"/>
</svg>
